<svg width="59" height="51" viewBox="0 0 59 51" fill="none" xmlns="http://www.w3.org/2000/svg">
<g clip-path="url(#clip0_37_293)">
<path d="M29.6247 19.8968C35.0598 19.8968 39.4816 15.434 39.4816 9.94844C39.4816 4.46284 35.0598 0 29.6247 0C24.1896 0 19.7678 4.46284 19.7678 9.94844C19.7678 15.434 24.1896 19.8968 29.6247 19.8968ZM29.6247 3.43049C33.1857 3.43049 36.0826 6.35441 36.0826 9.94844C36.0826 13.5424 33.1857 16.4664 29.6247 16.4664C26.0637 16.4664 23.1668 13.5424 23.1668 9.94844C23.1668 6.35441 26.0637 3.43049 29.6247 3.43049Z" fill="#58B368"/>
<path d="M49.5651 19.8967C53.0011 19.8967 55.7964 17.0754 55.7964 13.6074C55.7964 10.1396 53.0011 7.31824 49.5651 7.31824C46.1292 7.31824 43.3337 10.1396 43.3337 13.6074C43.3337 17.0754 46.1292 19.8967 49.5651 19.8967ZM49.5651 10.7487C51.1269 10.7487 52.3975 12.0311 52.3975 13.6074C52.3975 15.1838 51.1269 16.4662 49.5651 16.4662C48.0033 16.4662 46.7327 15.1838 46.7327 13.6074C46.7327 12.0311 48.0033 10.7487 49.5651 10.7487Z" fill="#58B368"/>
<path d="M50.9359 23.7845H48.3074C45.21 23.7845 42.5361 25.6315 41.3178 28.2844C38.8092 25.5206 35.206 23.7845 31.2085 23.7845H28.041C24.0434 23.7845 20.4402 25.5206 17.9318 28.2844C16.7132 25.6315 14.0394 23.7845 10.942 23.7845H8.31351C4.07164 23.7845 0.620605 27.2466 0.620605 31.502V43.9901C0.620605 45.8375 2.11545 47.3406 3.9529 47.3406H14.3453C14.5196 49.3874 16.2249 50.9997 18.2975 50.9997H40.952C43.0244 50.9997 44.7298 49.3874 44.9042 47.3406H55.1778C57.0808 47.3406 58.6289 45.7842 58.6289 43.8712V31.502C58.6287 27.2466 55.1778 23.7845 50.9359 23.7845ZM4.01952 31.502C4.01952 29.1381 5.9458 27.215 8.31351 27.215H10.942C13.3097 27.215 15.236 29.1381 15.236 31.502V32.6765C14.0931 35.6797 14.3296 37.4796 14.3296 43.91H4.01952V31.502ZM41.5209 46.9951C41.5209 47.3117 41.2657 47.5692 40.952 47.5692H18.2974C17.9836 47.5692 17.7285 47.3116 17.7285 46.9951V37.6233C17.7285 31.8842 22.3546 27.215 28.0409 27.215H31.2084C36.8947 27.215 41.5209 31.8842 41.5209 37.6233V46.9951ZM55.2299 43.8712C55.2299 43.9303 55.8634 43.91 44.9198 43.91C44.9198 37.432 45.1544 35.6748 44.0134 32.6765V31.502C44.0134 29.1381 45.9397 27.215 48.3074 27.215H50.9359C53.3036 27.215 55.2299 29.1381 55.2299 31.502V43.8712Z" fill="#58B368"/>
<path d="M9.68445 19.8967C13.1205 19.8967 15.9158 17.0754 15.9158 13.6074C15.9158 10.1396 13.1205 7.31824 9.68445 7.31824C6.24851 7.31824 3.45312 10.1396 3.45312 13.6074C3.45312 17.0754 6.24851 19.8967 9.68445 19.8967ZM9.68445 10.7487C11.2463 10.7487 12.5169 12.0311 12.5169 13.6074C12.5169 15.1838 11.2463 16.4662 9.68445 16.4662C8.12267 16.4662 6.85204 15.1838 6.85204 13.6074C6.85204 12.0311 8.12267 10.7487 9.68445 10.7487Z" fill="#58B368"/>
</g>
<defs>
<clipPath id="clip0_37_293">
<rect width="58.1102" height="51" fill="white" transform="translate(0.620605)"/>
</clipPath>
</defs>
</svg>
