<svg width="52" height="30" viewBox="0 0 52 30" fill="none" xmlns="http://www.w3.org/2000/svg">
<path d="M43.4534 3.51881H41.6718V2.41695C41.6718 1.58718 40.9979 0.914429 40.1665 0.914429H1.74658C0.915249 0.914429 0.241211 1.58705 0.241211 2.41695V10.3466C0.241211 17.3534 4.12687 23.5146 9.96048 26.9951H1.74747C0.91615 26.9951 0.242109 27.6678 0.242109 28.4977C0.242109 29.3275 0.915952 30.0002 1.74747 30.0002H40.1665C40.9979 30.0002 41.6719 29.3275 41.6719 28.4977C41.6719 27.6678 40.998 26.9951 40.1665 26.9951H31.9527C35.2699 25.0159 37.9572 22.1701 39.6582 18.7944H43.4535C47.673 18.7944 51.1059 15.368 51.1059 11.1566C51.1059 6.94505 47.6729 3.51881 43.4534 3.51881ZM38.6612 10.3466C38.6611 19.5266 30.7188 26.9951 20.9565 26.9951C11.1942 26.9951 3.25194 19.5266 3.25194 10.3466V3.91941H38.6611V10.3466H38.6612ZM43.4534 15.7895H40.8631C41.3891 14.0604 41.6718 12.2343 41.6718 10.3466V6.5236H43.4534C46.0129 6.5236 48.0952 8.60198 48.0952 11.1566C48.0952 13.7112 46.0129 15.7895 43.4534 15.7895Z" fill="#58B368"/>
</svg>
