<svg width="31" height="30" viewBox="0 0 31 30" fill="none" xmlns="http://www.w3.org/2000/svg">
<g clip-path="url(#clip0_37_278)">
<path d="M26.5784 0H3.58209C1.64125 0 0.0622559 1.57711 0.0622559 3.51562V26.4844C0.0622559 28.4229 1.64125 30 3.58209 30H26.5784C28.5192 30 30.0982 28.4229 30.0982 26.4844V3.51562C30.0982 1.57711 28.5192 0 26.5784 0ZM27.7516 26.4844C27.7516 27.1306 27.2253 27.6562 26.5784 27.6562H19.8907V18.1055H23.5155L24.1145 14.4727H19.8907V11.9531C19.8907 10.9585 20.6548 10.1953 21.6506 10.1953H24.0558V6.5625H21.6506C18.6632 6.5625 16.2548 8.97948 16.2548 11.9633V14.4727H12.7337V18.1055H16.2548V27.6562H3.58209C2.93514 27.6562 2.40881 27.1306 2.40881 26.4844V3.51562C2.40881 2.86945 2.93514 2.34375 3.58209 2.34375H26.5784C27.2253 2.34375 27.7516 2.86945 27.7516 3.51562V26.4844Z" fill="#58B368"/>
</g>
<defs>
<clipPath id="clip0_37_278">
<rect width="30.0359" height="30" fill="white" transform="translate(0.0622559)"/>
</clipPath>
</defs>
</svg>
