<svg width="31" height="30" viewBox="0 0 31 30" fill="none" xmlns="http://www.w3.org/2000/svg">
<g clip-path="url(#clip0_37_274)">
<path d="M21.311 0H8.72496C3.914 0 0 3.90931 0 8.71452V21.2855C0 26.0907 3.914 30 8.72496 30H21.311C26.1219 30 30.0359 26.0907 30.0359 21.2855V8.71452C30.0359 3.90931 26.1219 0 21.311 0ZM27.6894 21.2855C27.6894 24.7983 24.828 27.6562 21.311 27.6562H8.72496C5.20789 27.6562 2.34656 24.7983 2.34656 21.2855V8.71452C2.34656 5.20166 5.20789 2.34375 8.72496 2.34375H21.311C24.828 2.34375 27.6894 5.20166 27.6894 8.71452V21.2855Z" fill="#58B368"/>
<path d="M15.018 6.91406C10.554 6.91406 6.92236 10.5414 6.92236 15C6.92236 19.4586 10.554 23.086 15.018 23.086C19.482 23.086 23.1136 19.4586 23.1136 15C23.1136 10.5414 19.482 6.91406 15.018 6.91406ZM15.018 20.7422C11.848 20.7422 9.26892 18.1662 9.26892 15C9.26892 11.8338 11.848 9.25781 15.018 9.25781C18.188 9.25781 20.7671 11.8338 20.7671 15C20.7671 18.1662 18.188 20.7422 15.018 20.7422Z" fill="#58B368"/>
<path d="M23.2309 7.96875C23.8789 7.96875 24.4042 7.44409 24.4042 6.79688C24.4042 6.14967 23.8789 5.625 23.2309 5.625C22.5829 5.625 22.0576 6.14967 22.0576 6.79688C22.0576 7.44409 22.5829 7.96875 23.2309 7.96875Z" fill="#58B368"/>
</g>
<defs>
<clipPath id="clip0_37_274">
<rect width="30.0359" height="30" fill="white"/>
</clipPath>
</defs>
</svg>
