<svg width="21" height="18" viewBox="0 0 21 18" fill="none" xmlns="http://www.w3.org/2000/svg">
<path d="M16.8614 4.73684H14.2382L8.5114 1.89474L2.00362 5.12526V14.2105C1.47255 14.2105 0.96323 14.0109 0.587709 13.6556C0.212187 13.3002 0.0012207 12.8183 0.0012207 12.3158V4.89789C0.0012207 4.26316 0.281556 3.84632 0.812191 3.60947L8.5114 0L16.0704 3.60947C16.521 3.87474 16.8013 4.26316 16.8614 4.73684ZM5.00721 5.68421H18.0228C18.5538 5.68421 19.0632 5.88383 19.4387 6.23917C19.8142 6.5945 20.0252 7.07643 20.0252 7.57895V16.1053C20.0252 16.6078 19.8142 17.0897 19.4387 17.445C19.0632 17.8004 18.5538 18 18.0228 18H5.00721C4.47614 18 3.96682 17.8004 3.5913 17.445C3.21578 17.0897 3.00481 16.6078 3.00481 16.1053V7.57895C3.00481 7.07643 3.21578 6.5945 3.5913 6.23917C3.96682 5.88383 4.47614 5.68421 5.00721 5.68421ZM18.0228 9.16105V7.57895L11.515 10.7147L5.00721 7.57895V9.16105L11.515 12.3158L18.0228 9.16105Z" fill="#58B368"/>
</svg>
