<svg width="18" height="22" viewBox="0 0 18 22" fill="none" xmlns="http://www.w3.org/2000/svg">
<path d="M4.51766 0.117101C5.12765 -0.0643533 5.78224 -0.0342076 6.37245 0.20252C6.96267 0.439248 7.45289 0.868277 7.76153 1.41819L7.86609 1.62311L8.78753 3.64626C9.0676 4.26033 9.15851 4.94209 9.04896 5.60674C8.93941 6.27139 8.63423 6.8896 8.17138 7.38447L7.98736 7.56602L6.53201 8.90424C6.26994 9.14905 6.46649 10.0967 7.41582 11.7168C8.26756 13.1747 8.96318 13.8555 9.30332 13.8926H9.36326L9.43714 13.8789L12.2949 13.0165C12.6789 12.9003 13.0888 12.8957 13.4755 13.0033C13.8621 13.1109 14.2092 13.326 14.4751 13.6231L14.6034 13.7812L16.4937 16.3669C16.8646 16.8736 17.0496 17.4897 17.0181 18.114C16.9867 18.7382 16.7408 19.3333 16.3208 19.8012L16.1507 19.9745L15.3938 20.6814C14.7153 21.3153 13.8666 21.7437 12.9485 21.9156C12.0305 22.0875 11.0817 21.9957 10.215 21.651C7.51758 20.5782 5.0669 18.1274 2.84065 14.3231C0.610224 10.5093 -0.316797 7.18505 0.0972262 4.33806C0.222634 3.4773 0.582033 2.66613 1.13724 1.99074C1.69245 1.31534 2.42273 0.800946 3.25049 0.5022L3.51954 0.414178L4.51766 0.117101Z" fill="#58B368"/>
</svg>
