<svg width="31" height="30" viewBox="0 0 31 30" fill="none" xmlns="http://www.w3.org/2000/svg">
<g clip-path="url(#clip0_37_280)">
<path d="M29.6967 2.92972C29.3298 2.48915 28.7803 2.24658 28.1492 2.24658C27.8061 2.24658 27.4427 2.31746 27.0692 2.45765L1.64432 11.9876C0.295051 12.4932 0.11333 13.2519 0.125017 13.6592C0.136704 14.0664 0.361964 14.814 1.73827 15.2439C1.74653 15.2464 1.75477 15.2489 1.76303 15.2511L7.03685 16.733L9.88889 24.7412C10.2778 25.833 11.1506 26.5112 12.1672 26.5112C12.8081 26.5112 13.4385 26.2475 13.9903 25.7488L17.2523 22.7996L21.9837 26.5404C21.9842 26.5409 21.9849 26.5411 21.9853 26.5415L22.0302 26.5771C22.0344 26.5803 22.0388 26.5836 22.0429 26.5868C22.5688 26.9873 23.1428 27.1988 23.7036 27.1991H23.7038C24.7994 27.1991 25.6718 26.4027 25.9259 25.1705L30.0917 4.9726C30.2591 4.16189 30.1188 3.43645 29.6967 2.92972ZM8.80112 16.4516L18.9759 11.3477L12.6404 17.9578C12.5366 18.066 12.463 18.1985 12.4268 18.3428L11.2051 23.2017L8.80112 16.4516ZM12.798 24.4775C12.7559 24.5156 12.7135 24.5495 12.6711 24.5808L13.8045 20.0734L15.8662 21.7036L12.798 24.4775ZM28.3669 4.62946L24.2011 24.8276C24.1609 25.0209 24.0329 25.4707 23.7036 25.4707C23.5408 25.4707 23.3365 25.3837 23.1272 25.2255L17.7659 20.9867C17.7652 20.986 17.7643 20.9854 17.7634 20.9849L14.5733 18.4625L23.7352 8.90331C24.0285 8.59731 24.0551 8.12859 23.7982 7.79246C23.5411 7.45626 23.0752 7.35055 22.6941 7.54176L7.62528 15.1009L2.27977 13.5991L27.6969 4.07211C27.9115 3.99155 28.0615 3.97467 28.1492 3.97467C28.203 3.97467 28.2988 3.98097 28.3344 4.02395C28.3811 4.07998 28.4407 4.27101 28.3669 4.62946Z" fill="#58B368"/>
</g>
<defs>
<clipPath id="clip0_37_280">
<rect width="30.0359" height="30" fill="white" transform="translate(0.124512)"/>
</clipPath>
</defs>
</svg>
