<svg width="63" height="51" viewBox="0 0 63 51" fill="none" xmlns="http://www.w3.org/2000/svg">
<path d="M56.7716 7.33272H43.7903V4.99648C43.7903 2.24147 41.5619 0 38.8225 0H22.7557C20.0166 0 17.7879 2.2413 17.7879 4.99648V7.33272H4.80672C2.15628 7.33272 0 9.50117 0 12.1667V46.1658C0 48.8313 2.15628 51 4.80672 51H56.7714C59.4219 51 61.5781 48.8313 61.5781 46.1658V12.1667C61.5783 9.50136 59.4222 7.33272 56.7716 7.33272ZM21.9858 4.99648C21.9858 4.5694 22.3314 4.22186 22.7558 4.22186H38.8227C39.2471 4.22186 39.5927 4.5694 39.5927 4.99648V7.33272H21.9858V4.99648ZM4.80689 11.5546H56.7716C57.1074 11.5546 57.3806 11.8291 57.3806 12.1667V23.2445C50.8761 25.6712 41.0651 27.1047 30.7715 27.1047C20.5005 27.1047 10.7028 25.6761 4.19772 23.2575V12.1667C4.19788 11.8291 4.47107 11.5546 4.80689 11.5546ZM56.7716 46.7782H4.80689C4.47107 46.7782 4.19788 46.5036 4.19788 46.1658V27.7303C10.1516 29.7057 17.9793 30.9403 26.5099 31.2497C26.5094 31.2742 26.5064 31.2978 26.5064 31.3226V32.2536C26.5064 33.999 27.9182 35.4188 29.6536 35.4188H31.925C33.6605 35.4188 35.0723 33.999 35.0723 32.2536V31.3226C35.0723 31.2978 35.0689 31.2735 35.0687 31.2487C43.6047 30.9365 51.4313 29.6984 57.3809 27.7192V46.166C57.3806 46.5036 57.1074 46.7782 56.7716 46.7782Z" fill="#58B368"/>
</svg>
