<svg width="13" height="8" viewBox="0 0 13 8" fill="none" xmlns="http://www.w3.org/2000/svg">
<path d="M6.11525 7.28375L0.473386 1.36244C0.379201 1.26364 0.32666 1.13238 0.32666 0.995878C0.32666 0.859378 0.379201 0.728116 0.473386 0.629316L0.479761 0.622941C0.52542 0.574878 0.580379 0.536608 0.641296 0.510456C0.702212 0.484303 0.767812 0.470817 0.834104 0.470817C0.900397 0.470817 0.965997 0.484303 1.02691 0.510456C1.08783 0.536608 1.14279 0.574878 1.18845 0.622941L6.50094 6.19894L11.8113 0.622941C11.857 0.574878 11.9119 0.536608 11.9728 0.510456C12.0338 0.484303 12.0994 0.470817 12.1656 0.470817C12.2319 0.470817 12.2975 0.484303 12.3585 0.510456C12.4194 0.536608 12.4743 0.574878 12.52 0.622941L12.5264 0.629316C12.6206 0.728116 12.6731 0.859378 12.6731 0.995878C12.6731 1.13238 12.6206 1.26364 12.5264 1.36244L6.8845 7.28375C6.83488 7.33583 6.77521 7.37729 6.7091 7.40561C6.64298 7.43394 6.5718 7.44855 6.49988 7.44855C6.42795 7.44855 6.35677 7.43394 6.29065 7.40561C6.22454 7.37729 6.16487 7.33583 6.11525 7.28375Z" fill="black"/>
</svg>
