<svg width="193" height="19" viewBox="0 0 193 19" fill="none" xmlns="http://www.w3.org/2000/svg">
<path d="M0.736 1.2H2.512V16.464H11.92V18H0.736V1.2ZM14.5088 5.376H16.2128V18H14.5088V5.376ZM15.3728 2.616C15.0208 2.616 14.7248 2.496 14.4848 2.256C14.2448 2.016 14.1248 1.728 14.1248 1.392C14.1248 1.072 14.2448 0.791999 14.4848 0.551999C14.7248 0.311999 15.0208 0.191999 15.3728 0.191999C15.7248 0.191999 16.0208 0.311999 16.2608 0.551999C16.5008 0.775999 16.6208 1.048 16.6208 1.368C16.6208 1.72 16.5008 2.016 16.2608 2.256C16.0208 2.496 15.7248 2.616 15.3728 2.616ZM25.3701 5.28C27.0181 5.28 28.2821 5.696 29.1621 6.528C30.0421 7.344 30.4821 8.56 30.4821 10.176V18H28.8501V16.032C28.4661 16.688 27.8981 17.2 27.1461 17.568C26.4101 17.936 25.5301 18.12 24.5061 18.12C23.0981 18.12 21.9781 17.784 21.1461 17.112C20.3141 16.44 19.8981 15.552 19.8981 14.448C19.8981 13.376 20.2821 12.512 21.0501 11.856C21.8341 11.2 23.0741 10.872 24.7701 10.872H28.7781V10.104C28.7781 9.016 28.4741 8.192 27.8661 7.632C27.2581 7.056 26.3701 6.768 25.2021 6.768C24.4021 6.768 23.6341 6.904 22.8981 7.176C22.1621 7.432 21.5301 7.792 21.0021 8.256L20.2341 6.984C20.8741 6.44 21.6421 6.024 22.5381 5.736C23.4341 5.432 24.3781 5.28 25.3701 5.28ZM24.7701 16.776C25.7301 16.776 26.5541 16.56 27.2421 16.128C27.9301 15.68 28.4421 15.04 28.7781 14.208V12.144H24.8181C22.6581 12.144 21.5781 12.896 21.5781 14.4C21.5781 15.136 21.8581 15.72 22.4181 16.152C22.9781 16.568 23.7621 16.776 24.7701 16.776ZM38.4944 18.12C37.4704 18.12 36.4864 17.976 35.5424 17.688C34.6144 17.384 33.8864 17.008 33.3584 16.56L34.1264 15.216C34.6544 15.632 35.3184 15.976 36.1184 16.248C36.9184 16.504 37.7504 16.632 38.6144 16.632C39.7664 16.632 40.6144 16.456 41.1584 16.104C41.7184 15.736 41.9984 15.224 41.9984 14.568C41.9984 14.104 41.8464 13.744 41.5424 13.488C41.2384 13.216 40.8544 13.016 40.3904 12.888C39.9264 12.744 39.3104 12.608 38.5424 12.48C37.5184 12.288 36.6944 12.096 36.0704 11.904C35.4464 11.696 34.9104 11.352 34.4624 10.872C34.0304 10.392 33.8144 9.728 33.8144 8.88C33.8144 7.824 34.2544 6.96 35.1344 6.288C36.0144 5.616 37.2384 5.28 38.8064 5.28C39.6224 5.28 40.4384 5.392 41.2544 5.616C42.0704 5.824 42.7424 6.104 43.2704 6.456L42.5264 7.824C41.4864 7.104 40.2464 6.744 38.8064 6.744C37.7184 6.744 36.8944 6.936 36.3344 7.32C35.7904 7.704 35.5184 8.208 35.5184 8.832C35.5184 9.312 35.6704 9.696 35.9744 9.984C36.2944 10.272 36.6864 10.488 37.1504 10.632C37.6144 10.76 38.2544 10.896 39.0704 11.04C40.0784 11.232 40.8864 11.424 41.4944 11.616C42.1024 11.808 42.6224 12.136 43.0544 12.6C43.4864 13.064 43.7024 13.704 43.7024 14.52C43.7024 15.624 43.2384 16.504 42.3104 17.16C41.3984 17.8 40.1264 18.12 38.4944 18.12ZM53.2846 5.28C54.8686 5.28 56.1246 5.744 57.0526 6.672C57.9966 7.584 58.4686 8.92 58.4686 10.68V18H56.7646V10.848C56.7646 9.536 56.4366 8.536 55.7806 7.848C55.1246 7.16 54.1886 6.816 52.9726 6.816C51.6126 6.816 50.5326 7.224 49.7326 8.04C48.9486 8.84 48.5566 9.952 48.5566 11.376V18H46.8526V0.191999H48.5566V7.584C49.0206 6.848 49.6606 6.28 50.4766 5.88C51.2926 5.48 52.2286 5.28 53.2846 5.28ZM74.1336 12.216H63.5736C63.6696 13.528 64.1736 14.592 65.0856 15.408C65.9976 16.208 67.1496 16.608 68.5416 16.608C69.3256 16.608 70.0456 16.472 70.7016 16.2C71.3576 15.912 71.9256 15.496 72.4056 14.952L73.3656 16.056C72.8056 16.728 72.1016 17.24 71.2536 17.592C70.4216 17.944 69.5016 18.12 68.4936 18.12C67.1976 18.12 66.0456 17.848 65.0376 17.304C64.0456 16.744 63.2696 15.976 62.7096 15C62.1496 14.024 61.8696 12.92 61.8696 11.688C61.8696 10.456 62.1336 9.352 62.6616 8.376C63.2056 7.4 63.9416 6.64 64.8696 6.096C65.8136 5.552 66.8696 5.28 68.0376 5.28C69.2056 5.28 70.2536 5.552 71.1816 6.096C72.1096 6.64 72.8376 7.4 73.3656 8.376C73.8936 9.336 74.1576 10.44 74.1576 11.688L74.1336 12.216ZM68.0376 6.744C66.8216 6.744 65.7976 7.136 64.9656 7.92C64.1496 8.688 63.6856 9.696 63.5736 10.944H72.5256C72.4136 9.696 71.9416 8.688 71.1096 7.92C70.2936 7.136 69.2696 6.744 68.0376 6.744ZM84.058 5.28C85.642 5.28 86.898 5.744 87.826 6.672C88.77 7.584 89.242 8.92 89.242 10.68V18H87.538V10.848C87.538 9.536 87.21 8.536 86.554 7.848C85.898 7.16 84.962 6.816 83.746 6.816C82.386 6.816 81.306 7.224 80.506 8.04C79.722 8.84 79.33 9.952 79.33 11.376V18H77.626V5.376H79.258V7.704C79.722 6.936 80.362 6.344 81.178 5.928C82.01 5.496 82.97 5.28 84.058 5.28ZM98.5482 11.664L95.5722 14.4V18H93.8682V0.191999H95.5722V12.264L103.108 5.376H105.22L99.8202 10.536L105.724 18H103.636L98.5482 11.664ZM112.927 18.12C111.711 18.12 110.615 17.848 109.639 17.304C108.663 16.744 107.895 15.976 107.335 15C106.775 14.024 106.495 12.92 106.495 11.688C106.495 10.456 106.775 9.352 107.335 8.376C107.895 7.4 108.663 6.64 109.639 6.096C110.615 5.552 111.711 5.28 112.927 5.28C114.143 5.28 115.239 5.552 116.215 6.096C117.191 6.64 117.951 7.4 118.495 8.376C119.055 9.352 119.335 10.456 119.335 11.688C119.335 12.92 119.055 14.024 118.495 15C117.951 15.976 117.191 16.744 116.215 17.304C115.239 17.848 114.143 18.12 112.927 18.12ZM112.927 16.608C113.823 16.608 114.623 16.408 115.327 16.008C116.047 15.592 116.607 15.008 117.007 14.256C117.407 13.504 117.607 12.648 117.607 11.688C117.607 10.728 117.407 9.872 117.007 9.12C116.607 8.368 116.047 7.792 115.327 7.392C114.623 6.976 113.823 6.768 112.927 6.768C112.031 6.768 111.223 6.976 110.503 7.392C109.799 7.792 109.239 8.368 108.823 9.12C108.423 9.872 108.223 10.728 108.223 11.688C108.223 12.648 108.423 13.504 108.823 14.256C109.239 15.008 109.799 15.592 110.503 16.008C111.223 16.408 112.031 16.608 112.927 16.608ZM122.63 18.12C122.278 18.12 121.974 17.992 121.718 17.736C121.478 17.48 121.358 17.168 121.358 16.8C121.358 16.432 121.478 16.128 121.718 15.888C121.974 15.632 122.278 15.504 122.63 15.504C122.982 15.504 123.286 15.632 123.542 15.888C123.798 16.128 123.926 16.432 123.926 16.8C123.926 17.168 123.798 17.48 123.542 17.736C123.286 17.992 122.982 18.12 122.63 18.12Z" fill="black"/>
<path d="M127.548 5.376H129.252V18H127.548V5.376ZM128.412 2.616C128.06 2.616 127.764 2.496 127.524 2.256C127.284 2.016 127.164 1.728 127.164 1.392C127.164 1.072 127.284 0.791999 127.524 0.551999C127.764 0.311999 128.06 0.191999 128.412 0.191999C128.764 0.191999 129.06 0.311999 129.3 0.551999C129.54 0.775999 129.66 1.048 129.66 1.368C129.66 1.72 129.54 2.016 129.3 2.256C129.06 2.496 128.764 2.616 128.412 2.616ZM140.425 5.28C142.009 5.28 143.265 5.744 144.193 6.672C145.137 7.584 145.609 8.92 145.609 10.68V18H143.905V10.848C143.905 9.536 143.577 8.536 142.921 7.848C142.265 7.16 141.329 6.816 140.113 6.816C138.753 6.816 137.673 7.224 136.873 8.04C136.089 8.84 135.697 9.952 135.697 11.376V18H133.993V5.376H135.625V7.704C136.089 6.936 136.729 6.344 137.545 5.928C138.377 5.496 139.337 5.28 140.425 5.28ZM150.403 18.12C150.051 18.12 149.747 17.992 149.491 17.736C149.251 17.48 149.131 17.168 149.131 16.8C149.131 16.432 149.251 16.128 149.491 15.888C149.747 15.632 150.051 15.504 150.403 15.504C150.755 15.504 151.059 15.632 151.315 15.888C151.571 16.128 151.699 16.432 151.699 16.8C151.699 17.168 151.571 17.48 151.315 17.736C151.059 17.992 150.755 18.12 150.403 18.12ZM161.753 5.28C163.337 5.28 164.593 5.744 165.521 6.672C166.465 7.584 166.937 8.92 166.937 10.68V18H165.233V10.848C165.233 9.536 164.905 8.536 164.249 7.848C163.593 7.16 162.657 6.816 161.441 6.816C160.081 6.816 159.001 7.224 158.201 8.04C157.417 8.84 157.025 9.952 157.025 11.376V18H155.321V5.376H156.953V7.704C157.417 6.936 158.057 6.344 158.873 5.928C159.705 5.496 160.665 5.28 161.753 5.28ZM182.602 12.216H172.042C172.138 13.528 172.642 14.592 173.554 15.408C174.466 16.208 175.618 16.608 177.01 16.608C177.794 16.608 178.514 16.472 179.17 16.2C179.826 15.912 180.394 15.496 180.874 14.952L181.834 16.056C181.274 16.728 180.57 17.24 179.722 17.592C178.89 17.944 177.97 18.12 176.962 18.12C175.666 18.12 174.514 17.848 173.506 17.304C172.514 16.744 171.738 15.976 171.178 15C170.618 14.024 170.338 12.92 170.338 11.688C170.338 10.456 170.602 9.352 171.13 8.376C171.674 7.4 172.41 6.64 173.338 6.096C174.282 5.552 175.338 5.28 176.506 5.28C177.674 5.28 178.722 5.552 179.65 6.096C180.578 6.64 181.306 7.4 181.834 8.376C182.362 9.336 182.626 10.44 182.626 11.688L182.602 12.216ZM176.506 6.744C175.29 6.744 174.266 7.136 173.434 7.92C172.618 8.688 172.154 9.696 172.042 10.944H180.994C180.882 9.696 180.41 8.688 179.578 7.92C178.762 7.136 177.738 6.744 176.506 6.744ZM192.743 17.232C192.423 17.52 192.023 17.744 191.543 17.904C191.079 18.048 190.591 18.12 190.079 18.12C188.895 18.12 187.983 17.8 187.343 17.16C186.703 16.52 186.383 15.616 186.383 14.448V6.816H184.127V5.376H186.383V2.616H188.087V5.376H191.927V6.816H188.087V14.352C188.087 15.104 188.271 15.68 188.639 16.08C189.023 16.464 189.567 16.656 190.271 16.656C190.623 16.656 190.959 16.6 191.279 16.488C191.615 16.376 191.903 16.216 192.143 16.008L192.743 17.232Z" fill="#58B368"/>
</svg>
